# xmcd
#
# Track frame offsets:
#	150
#	12050
#	25037
#	33026
#	50427
#	63637
#	75761
#	86655
#	96895
#	108445
#	119907
#	132809
#	147059
#	157409
#	169260
#	179760
#
# Disc length: 2596 seconds
#
# Revision: 0
# Processed by: cddbd v1.5.2PL0 Copyright (c) Steve Scherf et al.
# Submitted via: EasyCDDAExtractor 15.2.5.1
#
DISCID=d20a2210
DTITLE=Various Artist - soul braza vol 1
DYEAR=1900
DGENRE=
TTITLE0=eduardo araujo - juazeiro
TTITLE1=vanuza - hey joe
TTITLE2=toni tornado - deia a partida
TTITLE3=lena rios - eu sou eu nicori … o diabo
TTITLE4=wanderlea - vida maneira
TTITLE5=tony e frankye - vou procurar o meu lugar
TTITLE6=the jones - hey mina
TTITLE7=trio ternura - sempre existe
TTITLE8=flavio kurt - walderez walder…a
TTITLE9=edy star - a bem da verdade
TTITLE10=lena rios - sem essa aranha
TTITLE11=antonio carlos and jocafi - ina
TTITLE12=the pop's - que isso menina
TTITLE13=gustavo - n„o vou ficar
TTITLE14=ely - eclipse total
TTITLE15=manito - sock it to em
EXTD=
EXTT0=
EXTT1=
EXTT2=
EXTT3=
EXTT4=
EXTT5=
EXTT6=
EXTT7=
EXTT8=
EXTT9=
EXTT10=
EXTT11=
EXTT12=
EXTT13=
EXTT14=
EXTT15=
PLAYORDER=
